<?xml version="1.0" encoding="UTF-8" standalone="no"?>
<svg
   xmlns:dc="http://purl.org/dc/elements/1.1/"
   xmlns:cc="http://creativecommons.org/ns#"
   xmlns:rdf="http://www.w3.org/1999/02/22-rdf-syntax-ns#"
   xmlns:svg="http://www.w3.org/2000/svg"
   xmlns="http://www.w3.org/2000/svg"
   xmlns:sodipodi="http://sodipodi.sourceforge.net/DTD/sodipodi-0.dtd"
   xmlns:inkscape="http://www.inkscape.org/namespaces/inkscape"
   inkscape:version="1.0 (4035a4fb49, 2020-05-01)"
   sodipodi:docname="share.svg"
   id="svg4"
   version="1.1"
   width="48"
   height="48">
  <metadata
     id="metadata10">
    <rdf:RDF>
      <cc:Work
         rdf:about="">
        <dc:format>image/svg+xml</dc:format>
        <dc:type
           rdf:resource="http://purl.org/dc/dcmitype/StillImage" />
      </cc:Work>
    </rdf:RDF>
  </metadata>
  <defs
     id="defs8" />
  <sodipodi:namedview
     inkscape:current-layer="svg4"
     inkscape:window-maximized="1"
     inkscape:window-y="-11"
     inkscape:window-x="-11"
     inkscape:cy="24"
     inkscape:cx="24"
     inkscape:zoom="15.3125"
     showgrid="false"
     id="namedview6"
     inkscape:window-height="2454"
     inkscape:window-width="3840"
     inkscape:pageshadow="2"
     inkscape:pageopacity="0"
     guidetolerance="10"
     gridtolerance="10"
     objecttolerance="10"
     borderopacity="1"
     bordercolor="#666666"
     pagecolor="#ffffff" />
  <path
     style="stroke-width:1.12082;fill:#ffffff"
     id="path2"
     d="m 37.839061,46.416327 q -2.633918,0 -4.511285,-1.877368 -1.877368,-1.877367 -1.877368,-4.511286 0,-0.392285 0.08406,-0.924673 0.08406,-0.532388 0.252184,-0.980714 L 14.806286,28.259102 q -0.840613,0.952694 -2.07351,1.541122 -1.232898,0.588429 -2.521837,0.588429 -2.6339186,0 -4.5112859,-1.877367 Q 3.8222857,26.633918 3.8222857,24 q 0,-2.689959 1.8773674,-4.539306 1.8773673,-1.849347 4.5112859,-1.849347 1.288939,0 2.465796,0.504367 1.176857,0.504368 2.129551,1.457062 L 31.786653,9.8216735 q -0.168122,-0.3922857 -0.252184,-0.8966531 -0.08406,-0.5043673 -0.08406,-0.9526939 0,-2.6899592 1.877368,-4.5393061 1.877367,-1.8493469 4.511285,-1.8493469 2.689959,0 4.539306,1.8493469 1.849347,1.8493469 1.849347,4.5393061 0,2.6339185 -1.849347,4.5112855 -1.849347,1.877368 -4.539306,1.877368 -1.288939,0 -2.493816,-0.420307 -1.204878,-0.420306 -2.04549,-1.373 l -16.980367,9.414858 q 0.112081,0.448326 0.196143,1.036755 0.08406,0.588428 0.08406,0.980714 0,0.392286 -0.08406,0.840612 -0.08406,0.448327 -0.196143,0.896653 l 16.980367,9.639021 q 0.840612,-0.784572 1.961429,-1.260919 1.120816,-0.476347 2.577877,-0.476347 2.689959,0 4.539306,1.849347 1.849347,1.849347 1.849347,4.539306 0,2.633919 -1.849347,4.511286 -1.849347,1.877368 -4.539307,1.877368 z m 0,-35.417796 q 1.288939,0 2.157572,-0.868633 0.868632,-0.8686327 0.868632,-2.1575715 0,-1.2889387 -0.868632,-2.1575714 Q 39.128,4.9461224 37.839061,4.9461224 q -1.288939,0 -2.157571,0.8686327 -0.868633,0.8686327 -0.868633,2.1575714 0,1.2889388 0.868633,2.1575715 0.868632,0.868633 2.157571,0.868633 z M 10.210939,27.026204 q 1.288939,0 2.157571,-0.868633 Q 13.237143,25.288939 13.237143,24 q 0,-1.288939 -0.868633,-2.157571 -0.868632,-0.868633 -2.157571,-0.868633 -1.288939,0 -2.1575717,0.868633 Q 7.1847347,22.711061 7.1847347,24 q 0,1.288939 0.8686326,2.157571 0.8686327,0.868633 2.1575717,0.868633 z m 27.628122,16.027674 q 1.288939,0 2.157572,-0.868633 0.868632,-0.868633 0.868632,-2.157572 0,-1.288938 -0.868632,-2.157571 -0.868633,-0.868633 -2.157572,-0.868633 -1.288939,0 -2.157571,0.868633 -0.868633,0.868633 -0.868633,2.157571 0,1.288939 0.868633,2.157572 0.868632,0.868633 2.157571,0.868633 z m 0,-35.0815515 q 0,0 0,0 0,0 0,0 0,0 0,0 0,0 0,0 0,0 0,0 0,0 0,0 0,0 0,0 0,0 0,0 z M 10.210939,24 q 0,0 0,0 0,0 0,0 0,0 0,0 0,0 0,0 0,0 0,0 0,0 0,0 0,0 0,0 0,0 0,0 z m 27.628122,16.027673 q 0,0 0,0 0,0 0,0 0,0 0,0 0,0 0,0 0,0 0,0 0,0 0,0 0,0 0,0 0,0 0,0 z" />
</svg>
