<?xml version="1.0" encoding="utf-8"?>
<!-- Generator: Adobe Illustrator 25.2.0, SVG Export Plug-In . SVG Version: 6.00 Build 0)  -->
<svg version="1.1" id="Capa_1" xmlns="http://www.w3.org/2000/svg" xmlns:xlink="http://www.w3.org/1999/xlink" x="0px" y="0px"
	 viewBox="0 0 490 490" style="enable-background:new 0 0 490 490;" xml:space="preserve">
<style type="text/css">
	.st0{fill:#E8E8E8;}
	.st1{fill:#545454;}
	.st2{fill:#5826D3;}
	.st3{fill:#3F3F3F;}
	.st4{fill:#4A2AC9;}
	.st5{fill:#402CBE;}
	.st6{fill:#FAF7FF;}
	.st7{fill:#393939;}
</style>
<g>
	<path class="st0" d="M227.6,386.1H83.8c-7.4,0-13.3-6-13.3-13.3V292c0-7.4,6-13.3,13.3-13.3h143.8c7.4,0,13.3,6,13.3,13.3v80.8
		C240.9,380.2,234.9,386.1,227.6,386.1z"/>
	<path class="st0" d="M423.1,386.4H277.7c-6.9,0-12.5-5.6-12.5-12.5v-82.4c0-6.9,5.6-12.5,12.5-12.5h145.4c6.9,0,12.5,5.6,12.5,12.5
		v82.4C435.6,380.8,430,386.4,423.1,386.4z"/>
	<path class="st0" d="M422.8,247.4H86.7c-8.6,0-15.5-6.9-15.5-15.5v-64.7c0-8.6,6.9-15.5,15.5-15.5h336.1c8.6,0,15.5,6.9,15.5,15.5
		v64.7C438.3,240.5,431.3,247.4,422.8,247.4z"/>
	<g id="line_21_">
		<path class="st1" d="M15.2,432.6h459.6c8.4,0,15.2-6.8,15.2-15.1V82c0-8.3-6.8-15.1-15.2-15.1H15.2C6.8,66.9,0,73.7,0,82v335.5
			C0,425.8,6.8,432.6,15.2,432.6z M19.7,85.9H473v331.3H19.7V85.9z"/>
		<rect x="15.5" y="85.9" class="st2" width="23.9" height="331.3"/>
		<path class="st3" d="M121.9,301.1c-18.7,0-33.8,14.9-33.8,33.2s15.1,33.2,33.8,33.2s33.8-14.9,33.8-33.2
			C155.7,315.9,140.6,301.1,121.9,301.1z M121.9,360.9c-14.9,0-27-11.9-27-26.6c0-13.9,11-25.2,24.8-26.4v27.5h29.1
			C148.2,349.6,136.4,360.9,121.9,360.9z M126.4,328.8v-20.6c10.9,1.8,19.6,10.1,21.9,20.6H126.4z"/>
		<rect x="172.3" y="341" class="st3" width="43.1" height="8.7"/>
		<path class="st4" d="M165.8,104.7h185.8c3,0,5.5,4,5.5,9v0c0,5-2.5,9-5.5,9H165.8c-3,0-5.5-4-5.5-9v0
			C160.3,108.8,162.8,104.7,165.8,104.7z"/>
		<rect x="172.3" y="318.8" class="st3" width="43.1" height="8.7"/>
		<rect x="98.4" y="170.4" class="st3" width="4.4" height="61.2"/>
		<rect x="98.4" y="228.5" class="st3" width="167" height="4.4"/>
		<rect x="323.4" y="206.2" class="st3" width="75.9" height="8.7"/>
		<rect x="323.4" y="184.1" class="st3" width="75.9" height="8.7"/>
		<rect x="109" y="207.5" class="st1" width="8" height="17.4"/>
		<rect x="120.8" y="196.1" class="st1" width="8" height="28.8"/>
		<rect x="132.5" y="192.6" class="st1" width="8" height="32.3"/>
		<rect x="143.8" y="204.5" class="st1" width="8" height="20.4"/>
		<rect x="155.2" y="182" class="st1" width="8" height="42.9"/>
		<rect x="166.1" y="177.8" class="st1" width="8" height="47.1"/>
		<rect x="177.9" y="186.2" class="st1" width="8" height="38.7"/>
		<rect x="189.1" y="174.2" class="st5" width="8" height="50.8"/>
		<rect x="200.6" y="185.1" class="st1" width="8" height="39.9"/>
		<rect x="211.8" y="196.1" class="st1" width="8" height="28.8"/>
		<rect x="222.8" y="205" class="st1" width="8" height="19.9"/>
		<rect x="233.9" y="210.5" class="st1" width="8" height="14.4"/>
		<rect x="244.6" y="217" class="st1" width="8" height="7.9"/>
		<rect x="254.7" y="220.2" class="st1" width="8" height="4.7"/>
	</g>
	<circle class="st6" cx="27.4" cy="104.7" r="5.3"/>
	<circle class="st6" cx="27.4" cy="120.7" r="5.3"/>
	<circle class="st6" cx="27.4" cy="136.6" r="5.3"/>
	<path class="st7" d="M387.8,319.3c-1.9-4.6-4.7-8.7-8.2-12.2c-3.5-3.5-7.6-6.3-12.2-8.2c-4.7-2-9.8-3-15-3c-5.2,0-10.2,1-15,3
		c-4.6,1.9-8.7,4.7-12.2,8.2c-3.5,3.5-6.3,7.7-8.2,12.2c-2,4.7-3,9.8-3,15c0,11.4,5,22.1,13.7,29.4l0.1,0.1c0.5,0.4,1.1,0.6,1.8,0.6
		h45.6c0.6,0,1.3-0.2,1.8-0.6l0.1-0.1c8.7-7.3,13.7-18.1,13.7-29.4C390.9,329.1,389.8,324.1,387.8,319.3z M373.8,358H331
		c-6.7-6-10.5-14.7-10.5-23.7c0-8.5,3.3-16.5,9.4-22.6c6-6,14-9.4,22.6-9.4c8.5,0,16.5,3.3,22.6,9.4c6,6,9.4,14,9.4,22.6
		C384.3,343.3,380.5,351.9,373.8,358z M362,322.4c-0.3-0.3-0.7-0.3-1,0l-7.2,7.2c-1.6-0.4-3.4,0-4.6,1.2c-1.9,1.9-1.9,4.9,0,6.8
		c0,0,0,0,0,0c1.9,1.9,4.9,1.9,6.8,0c0,0,0,0,0,0c1.2-1.2,1.7-3,1.2-4.6l7.2-7.2c0.3-0.3,0.3-0.7,0-1L362,322.4L362,322.4z
		 M350.5,313.7h3.8c0.4,0,0.7-0.3,0.7-0.7v-6.9c0-0.4-0.3-0.7-0.7-0.7h-3.8c-0.4,0-0.7,0.3-0.7,0.7v6.9
		C349.9,313.4,350.2,313.7,350.5,313.7z M372.8,332.4v3.8c0,0.4,0.3,0.7,0.7,0.7h6.9c0.4,0,0.7-0.3,0.7-0.7v-3.8
		c0-0.4-0.3-0.7-0.7-0.7h-6.9C373.2,331.7,372.8,332,372.8,332.4z M373.9,315.5l-2.7-2.7c-0.3-0.3-0.7-0.3-1,0l-4.9,4.9
		c-0.3,0.3-0.3,0.7,0,1l2.7,2.7c0.3,0.3,0.7,0.3,1,0l4.9-4.9C374.2,316.2,374.2,315.7,373.9,315.5z M334.6,312.8
		c-0.3-0.3-0.7-0.3-1,0l-2.7,2.7c-0.3,0.3-0.3,0.7,0,1l4.9,4.9c0.3,0.3,0.7,0.3,1,0l2.7-2.7c0.3-0.3,0.3-0.7,0-1L334.6,312.8z
		 M331,331.7h-6.9c-0.4,0-0.7,0.3-0.7,0.7v3.8c0,0.4,0.3,0.7,0.7,0.7h6.9c0.4,0,0.7-0.3,0.7-0.7v-3.8
		C331.7,332,331.4,331.7,331,331.7z"/>
</g>
</svg>
