<?xml version="1.0" encoding="utf-8"?>
<!-- Generator: Adobe Illustrator 25.2.0, SVG Export Plug-In . SVG Version: 6.00 Build 0)  -->
<svg version="1.1" id="Layer_1" xmlns="http://www.w3.org/2000/svg" xmlns:xlink="http://www.w3.org/1999/xlink" x="0px" y="0px"
	 viewBox="0 0 330 330" style="enable-background:new 0 0 330 330;" xml:space="preserve">
<style type="text/css">
	.st0{fill:#3A2DB3;}
	.st1{fill:#D7D7FF;}
	.st2{fill:#7373EF;}
	.st3{fill:#524BE2;}
	.st4{fill:#BBBBFF;}
	.st5{fill:#FAF7FF;}
	.st6{fill:#43A047;}
</style>
<g id="XMLID_17_">
	<path id="XMLID_18_" class="st0" d="M289.1,39c-3.1-2.5-7.2-3.6-11.1-2.8c-7.4,1.5-14.6,3.3-21.4,5.4V330h24.1
		c7.4,0,13.4-6,13.4-13.4V90.9V49.4C294,45.4,292.2,41.6,289.1,39z"/>
	<path id="XMLID_19_" class="st1" d="M0,254.3v62.4C0,324,6,330,13.4,330h24.1v-96.1c-8.1,2.9-17,5.4-26.7,7.3
		C4.5,242.4,0,247.9,0,254.3z"/>
	<path id="XMLID_20_" class="st2" d="M163.3,106.3c-10,12.4-18.8,25.3-27.4,38c-2.6,3.8-5.1,7.5-7.7,11.2V330h37.4V103.4
		c-0.7,0.9-1.5,1.8-2.2,2.7C163.4,106.2,163.4,106.3,163.3,106.3z"/>
	<path id="XMLID_21_" class="st3" d="M219.7,57.2c-9.7,5.4-18.8,11.7-27.3,18.9V330h37.4V52c-2.8,1.3-5.5,2.7-8.1,4.1
		C221,56.5,220.4,56.8,219.7,57.2z"/>
	<path id="XMLID_22_" class="st4" d="M64.1,221.4V330h37.4V190.3C91,202,78.9,212.7,64.1,221.4z"/>
</g>
<rect x="270.1" y="26.8" class="st5" width="33.5" height="27.2"/>
<rect x="282.5" y="17" class="st5" width="33.5" height="27.2"/>
<path class="st6" d="M294,6c-16.6,0-30,13.4-30,30s13.4,30,30,30c16.6,0,30-13.4,30-30S310.6,6,294,6z M287,54L287,54L287,54
	l-14-14.4l7-7.2l7,7.2L308,18l7,7.2L287,54z"/>
</svg>
