<?xml version="1.0" encoding="utf-8"?>
<!-- Generator: Adobe Illustrator 25.2.0, SVG Export Plug-In . SVG Version: 6.00 Build 0)  -->
<svg version="1.1" id="Layer_1" xmlns="http://www.w3.org/2000/svg" xmlns:xlink="http://www.w3.org/1999/xlink" x="0px" y="0px"
	 viewBox="0 0 512 512" style="enable-background:new 0 0 512 512;" xml:space="preserve">
<style type="text/css">
	.st0{fill:#FFFFFF;}
	.st1{fill:#FAF7FF;}
	.st2{fill:#E5E5E5;}
	.st3{fill:#4C4C4C;}
	.st4{fill:#402CBE;}
	.st5{fill:#68D88D;}
	.st6{fill:#D9FCE3;}
	.st7{fill:#DCCFFF;}
</style>
<path class="st0" d="M236,352.9H95.7c-6.2,0-11.2-5-11.2-11.2V43.4c0-6.2,5-11.2,11.2-11.2H236c6.2,0,11.2,5,11.2,11.2v298.4
	C247.2,347.9,242.2,352.9,236,352.9z"/>
<rect x="329.9" y="221" transform="matrix(0.7426 0.6697 -0.6697 0.7426 242.5432 -172.2636)" class="st1" width="31" height="16.9"/>
<path class="st0" d="M250.5,122.8L250.5,122.8c-6.2,0-11.2-5-11.2-11.2v0c0-6.2,5-11.2,11.2-11.2h0c6.2,0,11.2,5,11.2,11.2v0
	C261.6,117.8,256.6,122.8,250.5,122.8z"/>
<path class="st0" d="M311.5,142.4h-68c-6.2,0-11.2-5-11.2-11.2v-8.5c0-6.2,5-11.2,11.2-11.2h68c6.2,0,11.2,5,11.2,11.2v8.5
	C322.7,137.4,317.7,142.4,311.5,142.4z"/>
<path class="st2" d="M264.5,194.8H140.4c-3.9,0-7-3.1-7-7v0c0-3.9,3.1-7,7-7h124.1c3.9,0,7,3.1,7,7v0
	C271.6,191.6,268.4,194.8,264.5,194.8z"/>
<path class="st0" d="M280.7,124.3l-49-47.2c-4.4-4.3-4.6-11.3-0.3-15.8l13-13.4c4.3-4.4,11.3-4.6,15.8-0.3l49,47.2
	c4.4,4.3,4.6,11.3,0.3,15.8l-13,13.4C292.2,128.5,285.1,128.6,280.7,124.3z"/>
<path class="st2" d="M264.5,226.4H140.4c-3.9,0-7-3.1-7-7v-7.1c0-3.9,3.1-7,7-7h124.1c3.9,0,7,3.1,7,7v7.1
	C271.6,223.3,268.4,226.4,264.5,226.4z"/>
<path class="st2" d="M264.5,249.8H140.4c-3.9,0-7-3.1-7-7v0c0-3.9,3.1-7,7-7h124.1c3.9,0,7,3.1,7,7v0
	C271.6,246.6,268.4,249.8,264.5,249.8z"/>
<path class="st2" d="M264.5,273.1H140.4c-3.9,0-7-3.1-7-7v0c0-3.9,3.1-7,7-7h124.1c3.9,0,7,3.1,7,7v0
	C271.6,269.9,268.4,273.1,264.5,273.1z"/>
<path class="st2" d="M264.5,303.2H140.4c-3.9,0-7-3.1-7-7v-7.1c0-3.9,3.1-7,7-7h124.1c3.9,0,7,3.1,7,7v7.1
	C271.6,300,268.4,303.2,264.5,303.2z"/>
<path class="st2" d="M264.3,169.7H140.2c-3.9,0-7-3.1-7-7v0c0-3.9,3.1-7,7-7h124.1c3.9,0,7,3.1,7,7v0
	C271.3,166.6,268.2,169.7,264.3,169.7z"/>
<path class="st1" d="M373.7,239.6l-49-47.2c-4.4-4.3-4.6-11.3-0.3-15.8l13-13.4c4.3-4.4,11.3-4.6,15.8-0.3l49,47.2
	c4.4,4.3,4.6,11.3,0.3,15.8l-13,13.4C385.2,243.8,378.2,243.9,373.7,239.6z"/>
<g>
	<g>
		<g>
			<path class="st3" d="M327.4,106.2L253,23.6c-1.2-1.3-2.8-2-4.4-2H106c-16.8,0-30.5,15.2-30.5,33.9v273.8
				c0,18.7,13.7,33.9,30.5,33.9h192.7c16.8,0,30.5-15.2,30.5-33.9V111.2C329.2,109.3,328.6,107.5,327.4,106.2z M254.8,45.4
				L254.8,45.4l53,58.8h-35c-4.8,0-9.3-2.1-12.7-5.8c-3.4-3.8-5.3-8.8-5.3-14.1V45.4z M316.7,329.2c0,11-8.1,19.9-18,19.9H106
				c-9.9,0-18-8.9-18-19.9V55.5c0-11,8.1-19.9,18-19.9h136.2v48.7c0,9,3.2,17.6,8.9,24c5.8,6.4,13.4,9.9,21.6,9.9h43.9V329.2z"/>
		</g>
	</g>
	<g>
		<g>
			<path class="st4" d="M196.1,53h-2.8c-3.5,0-6.3,3.1-6.3,7c0,3.8,2.8,7,6.3,7h2.8c3.5,0,6.3-3.1,6.3-7
				C202.4,56.1,199.5,53,196.1,53z"/>
		</g>
	</g>
	<g>
		<g>
			<path class="st4" d="M172.9,53h-61c-3.5,0-6.3,3.1-6.3,7s2.8,7,6.3,7h61c3.5,0,6.3-3.1,6.3-7S176.4,53,172.9,53z"/>
		</g>
	</g>
</g>
<rect x="249" y="233.8" class="st1" width="160.4" height="232.7"/>
<rect x="178.2" y="149.1" class="st1" width="160.4" height="319"/>
<path class="st2" d="M356.7,309.2H232.6c-3.9,0-7-3.1-7-7v0c0-3.9,3.1-7,7-7h124.1c3.9,0,7,3.1,7,7v0
	C363.7,306.1,360.6,309.2,356.7,309.2z"/>
<path class="st2" d="M356.7,340.9H232.6c-3.9,0-7-3.1-7-7v-7.1c0-3.9,3.1-7,7-7h124.1c3.9,0,7,3.1,7,7v7.1
	C363.7,337.7,360.6,340.9,356.7,340.9z"/>
<path class="st2" d="M356.7,364.2H232.6c-3.9,0-7-3.1-7-7v0c0-3.9,3.1-7,7-7h124.1c3.9,0,7,3.1,7,7v0
	C363.7,361.1,360.6,364.2,356.7,364.2z"/>
<path class="st2" d="M356.7,387.5H232.6c-3.9,0-7-3.1-7-7v0c0-3.9,3.1-7,7-7h124.1c3.9,0,7,3.1,7,7v0
	C363.7,384.4,360.6,387.5,356.7,387.5z"/>
<path class="st2" d="M356.7,417.6H232.6c-3.9,0-7-3.1-7-7v-7.1c0-3.9,3.1-7,7-7h124.1c3.9,0,7,3.1,7,7v7.1
	C363.7,414.5,360.6,417.6,356.7,417.6z"/>
<path class="st2" d="M356.5,284.2H232.3c-3.9,0-7-3.1-7-7l0,0c0-3.9,3.1-7,7-7h124.1c3.9,0,7,3.1,7,7l0,0
	C363.5,281,360.3,284.2,356.5,284.2z"/>
<g>
	<g>
		<path class="st3" d="M419.5,222.2l-74.4-82.6c-1.2-1.3-2.8-2-4.4-2H198.2c-16.8,0-30.5,15.2-30.5,33.9v273.8
			c0,18.7,13.7,33.9,30.5,33.9h192.7c16.8,0,30.5-15.2,30.5-33.9V227.2C421.4,225.3,420.7,223.5,419.5,222.2z M347,161.4L347,161.4
			l45.5,50.5c2.9,3.2,0.6,8.3-3.7,8.3h-23.8c-4.8,0-9.3-2.1-12.7-5.8c-3.4-3.8-5.3-8.8-5.3-14.1V161.4z M408.8,445.3
			c0,11-8.1,19.9-18,19.9H198.2c-9.9,0-18-8.9-18-19.9V171.5c0-11,8.1-19.9,18-19.9h131.3c2.8,0,5,2.2,5,5v43.7c0,9,3.2,17.6,8.9,24
			c5.8,6.4,13.4,9.9,21.6,9.9h38.9c2.8,0,5,2.2,5,5V445.3z"/>
	</g>
</g>
<g>
	<g>
		<path class="st5" d="M288.5,168.5h-2.8c-3.5,0-6.3,3.1-6.3,7c0,3.8,2.8,7,6.3,7h2.8c3.5,0,6.3-3.1,6.3-7
			C294.7,171.7,291.9,168.5,288.5,168.5z"/>
	</g>
</g>
<g>
	<g>
		<path class="st5" d="M265.3,168.5h-61c-3.5,0-6.3,3.1-6.3,7c0,3.8,2.8,7,6.3,7h61c3.5,0,6.3-3.1,6.3-7
			C271.6,171.7,268.8,168.5,265.3,168.5z"/>
	</g>
</g>
<path class="st6" d="M316.2,227.3H205.7c-4.2,0-7.7-3.4-7.7-7.7v-19.4c0-4.2,3.4-7.7,7.7-7.7h110.5c4.2,0,7.7,3.4,7.7,7.7v19.4
	C323.9,223.9,320.5,227.3,316.2,227.3z"/>
<path class="st7" d="M220.6,111.6H113.5c-4,0-7.2-3.2-7.2-7.2V84.1c0-4,3.2-7.2,7.2-7.2h107.1c4,0,7.2,3.2,7.2,7.2v20.3
	C227.8,108.4,224.6,111.6,220.6,111.6z"/>
</svg>
