<?xml version="1.0" encoding="utf-8"?>
<!-- Generator: Adobe Illustrator 25.2.0, SVG Export Plug-In . SVG Version: 6.00 Build 0)  -->
<svg version="1.1" id="Calque_1" xmlns="http://www.w3.org/2000/svg" xmlns:xlink="http://www.w3.org/1999/xlink" x="0px" y="0px"
	 viewBox="0 0 64 64" style="enable-background:new 0 0 64 64;" xml:space="preserve">
<style type="text/css">
	.st0{fill:#E0995E;}
	.st1{opacity:0.2;}
	.st2{fill:#231F20;}
	.st3{fill:#402CBE;}
	.st4{fill:#C14646;}
	.st5{fill:#EAE659;}
	.st6{fill:#FFFFFF;}
	.st7{fill:#4F5D73;}
	.st8{fill:#929292;}
	.st9{fill:#9B9B9B;}
	.st10{fill:#D5C295;}
	.st11{fill:#7F634F;}
	.st12{fill:#BDC3C7;}
	.st13{fill:#5B5B5B;}
</style>
<g id="Layer_1">
	<g>
		<path class="st0" d="M25.9,14c-8.5,0-18,5.4-21.1,15.7c-1.6,5.2,5.2,3.1,5.6,9.2c0.4,4.9-1.1,6.6-1.4,9.6c-0.4,4,8.9,10,17.2,9.6
			c12.3-0.7,21.7-9.8,21.7-22.1S38.2,14,25.9,14z M17.9,50c-2.2,0-4-1.8-4-4s1.8-4,4-4s4,1.8,4,4S20.1,50,17.9,50z"/>
	</g>
	<g class="st1">
		<circle class="st2" cx="14.6" cy="29" r="4"/>
	</g>
	<g class="st1">
		<circle class="st2" cx="25.9" cy="23.6" r="4"/>
	</g>
	<g class="st1">
		<circle class="st2" cx="37.1" cy="28.7" r="4"/>
	</g>
	<g class="st1">
		<circle class="st2" cx="40.1" cy="41.3" r="4"/>
	</g>
	<g class="st1">
		<circle class="st2" cx="31" cy="51.1" r="4"/>
	</g>
	<g>
		<circle class="st3" cx="14.6" cy="27" r="4"/>
	</g>
	<g>
		<circle class="st4" cx="25.9" cy="21.6" r="4"/>
	</g>
	<g>
		<circle class="st5" cx="37.1" cy="26.7" r="4"/>
	</g>
	<g>
		<circle class="st6" cx="40.1" cy="39.3" r="4"/>
	</g>
	<g>
		<circle class="st7" cx="31" cy="49.1" r="4"/>
	</g>
</g>
<g id="XMLID_45_">
	<g>
		<path class="st8" d="M58.2,11.9c0.1,0,0.1,0.1,0,0.3l-2.9,4.3l-1.2-1.1l3.8-3.5c0,0,0.1-0.1,0.1-0.1
			C58.1,11.8,58.2,11.8,58.2,11.9z"/>
		<path class="st9" d="M44.1,24.8l3.6,3.1c-0.4,0.4-0.8,0.6-1.4,0.7c-0.7,0.1-1.4-0.1-1.9-0.6c-0.5-0.4-0.8-1.1-0.8-1.8
			C43.6,25.7,43.8,25.2,44.1,24.8z"/>
		<path class="st10" d="M42.8,29.9c0.6,0.5,0.9,1.2,1,1.9c0.1,0.7-0.2,1.4-0.7,2c-0.9,1-1.7,1.4-2.5,1.7c-0.9,0.4-1.8,0.8-2.7,1.9
			c-0.1-0.3-0.4-0.8-0.5-1.7c-0.1-1-0.2-3.5,1.5-5.5c0,0,0,0,0,0c0.5-0.6,1.1-0.9,1.9-1c0,0,0,0,0,0C41.6,29.2,42.3,29.4,42.8,29.9z
			"/>
		<polygon class="st11" points="53.6,15.9 55,17.1 48.2,27.2 44.7,24.2 		"/>
		<path class="st12" d="M44.9,29.3l-0.8,0.9c-0.2-0.4-0.5-0.7-0.8-0.9c-0.3-0.3-0.7-0.5-1.1-0.6l0.8-0.9c0.2,0.4,0.4,0.7,0.8,1
			C44.2,29,44.6,29.2,44.9,29.3z"/>
		<path class="st13" d="M58.8,11.2c0.4,0.4,0.5,0.9,0.2,1.4L48.7,28c-1,1-1.3,1.3-2.3,1.4c-0.1,0-0.1,0-0.2,0c-0.1,0-0.2,0-0.3,0
			l-1.4,1.6c0.1,0.2,0.1,0.4,0.1,0.7c0.1,1-0.2,1.9-0.9,2.6c-1,1.1-2,1.6-2.9,1.9c-0.9,0.4-1.7,0.7-2.4,1.8
			c-0.1,0.2-0.3,0.3-0.5,0.3c0,0-0.1,0-0.1,0c-0.3,0-0.6-0.3-0.9-0.9c-0.3-0.7-0.6-2-0.4-3.5c0-0.6,0.2-1.3,0.4-2.1
			c0.3-0.8,0.7-1.5,1.3-2.3c0.6-0.7,1.5-1.2,2.4-1.3c0,0,0,0,0,0c0.2,0,0.4,0,0.6,0l1.4-1.6c0-0.2,0-0.3-0.1-0.5
			c0-0.9,0.4-1.8,1-2.5l13.6-12.6C57.8,10.9,58.4,10.8,58.8,11.2z M58.3,12.2c0.1-0.1,0-0.2,0-0.3c0,0-0.1-0.1-0.2-0.1
			c0,0-0.1,0-0.1,0.1l-3.8,3.5l1.2,1.1L58.3,12.2z M55,17.1l-1.4-1.2l-8.9,8.2l3.5,3L55,17.1z M47.7,27.9l-3.6-3.1
			c-0.3,0.4-0.5,1-0.5,1.5c0,0.7,0.3,1.3,0.8,1.8c0.5,0.4,1.2,0.6,1.9,0.6C46.8,28.5,47.3,28.3,47.7,27.9z M44.2,30.2l0.8-0.9
			c-0.4-0.1-0.8-0.3-1.1-0.6c-0.3-0.3-0.6-0.6-0.8-1l-0.8,0.9c0.4,0.1,0.7,0.4,1.1,0.6C43.7,29.5,44,29.8,44.2,30.2z M43.8,31.8
			c-0.1-0.7-0.4-1.4-1-1.9c-0.6-0.5-1.3-0.7-2-0.7c0,0,0,0,0,0c-0.7,0.1-1.4,0.4-1.9,1c0,0,0,0,0,0c-1.7,2-1.6,4.5-1.5,5.5
			c0.1,0.9,0.3,1.4,0.5,1.7c0.8-1.2,1.8-1.6,2.7-1.9c0.8-0.3,1.7-0.7,2.5-1.7C43.6,33.2,43.9,32.5,43.8,31.8z"/>
	</g>
</g>
<g id="Layer_2">
</g>
</svg>
