<?xml version="1.0" encoding="UTF-8" standalone="no"?>
<svg
   xmlns:dc="http://purl.org/dc/elements/1.1/"
   xmlns:cc="http://creativecommons.org/ns#"
   xmlns:rdf="http://www.w3.org/1999/02/22-rdf-syntax-ns#"
   xmlns:svg="http://www.w3.org/2000/svg"
   xmlns="http://www.w3.org/2000/svg"
   xmlns:sodipodi="http://sodipodi.sourceforge.net/DTD/sodipodi-0.dtd"
   xmlns:inkscape="http://www.inkscape.org/namespaces/inkscape"
   version="1.1"
   id="Calque_1"
   x="0px"
   y="0px"
   viewBox="0 0 11338.6 7086.6"
   style="enable-background:new 0 0 11338.6 7086.6;"
   xml:space="preserve"
   sodipodi:docname="LOGO_JTV_ALT - Copie.svg"
   inkscape:version="1.0 (4035a4fb49, 2020-05-01)"><metadata
   id="metadata11"><rdf:RDF><cc:Work
       rdf:about=""><dc:format>image/svg+xml</dc:format><dc:type
         rdf:resource="http://purl.org/dc/dcmitype/StillImage" /></cc:Work></rdf:RDF></metadata><defs
   id="defs9" /><sodipodi:namedview
   inkscape:document-rotation="0"
   pagecolor="#ffffff"
   bordercolor="#666666"
   borderopacity="1"
   objecttolerance="10"
   gridtolerance="10"
   guidetolerance="10"
   inkscape:pageopacity="0"
   inkscape:pageshadow="2"
   inkscape:window-width="2160"
   inkscape:window-height="1334"
   id="namedview7"
   showgrid="false"
   inkscape:zoom="0.10371687"
   inkscape:cx="5669.2998"
   inkscape:cy="3543.3"
   inkscape:window-x="-11"
   inkscape:window-y="-11"
   inkscape:window-maximized="1"
   inkscape:current-layer="Calque_1" />
<style
   type="text/css"
   id="style2">
	.st0{fill:#151515;}
</style>
<path
   class="st0"
   d="M 274.46794,4535.1366 C 7.9931425,3709.1122 349.04289,1664.2387 1461.0171,935.11424 1717.5169,766.96436 2512.1913,1394.4389 2783.8911,1296.589 3098.8158,1183.5391 3868.7903,906.13926 5589.239,906.13926 c 1720.4487,0 2683.748,277.39984 2998.6727,390.44974 214.2249,76.9499 962.8243,-483.54967 1168.9742,-361.47476 C 10947.235,1640.9637 11377.11,3668.7372 11097.81,4535.1366 10886.435,5190.1611 9933.1107,5653.7607 8672.4617,5924.9855 7781.8373,6116.8854 6634.2382,5375.4109 5589.239,5375.8859 4544.7148,5376.3609 3602.7905,6118.3104 2710.7411,5927.3605 1444.8671,5656.6107 486.31779,5192.5361 274.46794,4535.1366 Z M 3295.9407,2700.6879 c -320.6248,0 -580.4496,389.4997 -580.4496,869.7244 0,480.2246 259.8248,869.7243 580.4496,869.7243 320.6248,0 580.4496,-389.4997 580.4496,-869.7243 0,-480.2247 -259.8248,-869.7244 -580.4496,-869.7244 m 4780.8714,0 c -320.6247,0 -580.4495,389.4997 -580.4495,869.7244 0,480.2246 259.8248,869.7243 580.4495,869.7243 320.6248,0 580.4496,-389.4997 580.4496,-869.7243 0,-480.2247 -259.8248,-869.7244 -580.4496,-869.7244 z"
   id="path4"
   style="stroke-width:4.75;fill:#ffffff" />
</svg>
